<svg width="18" height="21" viewBox="0 0 18 21" fill="none" xmlns="http://www.w3.org/2000/svg">
<path d="M7.00938 15.8586C8.82568 18.4339 12.9874 18.7773 15.6753 17.1322C16.3619 16.3568 16.7621 15.3907 16.1024 14.5893L15.1457 13.4272C14.4491 12.5811 13.2859 12.2817 12.2675 12.6865L10.9399 13.2141C10.529 13.3774 10.0597 13.2421 9.79876 12.8852V12.8852C8.74773 11.3447 7.81398 9.7274 7.00539 8.04693V8.04693C6.82675 7.64248 6.94427 7.1684 7.29113 6.89422L8.41185 6.00831C9.27158 5.32871 9.59395 4.17164 9.20949 3.1454L8.68138 1.73575C8.31724 0.763753 7.17757 0.33843 6.26566 0.834202C3.49699 2.33942 1.71349 6.11527 3.03562 8.97589V8.97589C4.14674 11.3869 5.47691 13.6909 7.00938 15.8586V15.8586Z" stroke="white"/>
</svg>
