<svg width="189" height="23" viewBox="0 0 189 23" fill="none" xmlns="http://www.w3.org/2000/svg">
<path d="M0 0.360078H8.68378V9.70711H15.099V0.360078H23.7978L23.7827 22.6549H15.099V13.1429H8.68378V22.6549H0V0.360078Z" fill="white"/>
<path d="M28.1998 11.4625C28.1998 9.77212 28.4702 8.22679 29.011 6.82648C29.5519 5.41618 30.3582 4.20591 31.4299 3.19569C32.5016 2.18548 33.8387 1.4003 35.4413 0.840183C37.0438 0.280061 38.9068 0 41.0301 0C43.1535 0 45.0165 0.280061 46.619 0.840183C48.2215 1.4003 49.5587 2.18548 50.6304 3.19569C51.7021 4.20591 52.5083 5.41618 53.0492 6.82648C53.5901 8.22679 53.8605 9.77212 53.8605 11.4625C53.8605 13.1729 53.5901 14.7382 53.0492 16.1585C52.5083 17.5788 51.7021 18.7941 50.6304 19.8043C49.5587 20.8145 48.2215 21.5997 46.619 22.1598C45.0165 22.7199 43.1535 23 41.0301 23C38.9068 23 37.0438 22.7199 35.4413 22.1598C33.8387 21.5997 32.5016 20.8145 31.4299 19.8043C30.3582 18.7941 29.5519 17.5788 29.011 16.1585C28.4702 14.7382 28.1998 13.1729 28.1998 11.4625ZM41.0301 19.8943C41.6311 19.8943 42.1619 19.7893 42.6227 19.5793C43.0834 19.3692 43.469 18.9591 43.7795 18.349C44.09 17.7389 44.3254 16.8837 44.4856 15.7834C44.6459 14.6832 44.726 13.2429 44.726 11.4625C44.726 9.70211 44.6459 8.2768 44.4856 7.18656C44.3254 6.09632 44.09 5.25114 43.7795 4.65101C43.469 4.05088 43.0834 3.64579 42.6227 3.43575C42.1619 3.2257 41.6311 3.12068 41.0301 3.12068C40.4292 3.12068 39.8933 3.2257 39.4226 3.43575C38.9618 3.64579 38.5762 4.05088 38.2657 4.65101C37.9552 5.25114 37.7199 6.09632 37.5596 7.18656C37.3994 8.2768 37.3192 9.70211 37.3192 11.4625C37.3192 13.2429 37.3994 14.6832 37.5596 15.7834C37.7199 16.8837 37.9552 17.7389 38.2657 18.349C38.5762 18.9591 38.9618 19.3692 39.4226 19.5793C39.8933 19.7893 40.4292 19.8943 41.0301 19.8943Z" fill="white"/>
<path d="M58.563 17.7038C59.6246 18.244 60.7364 18.6491 61.8983 18.9191C63.0601 19.1892 64.1418 19.3242 65.1434 19.3242C66.2952 19.3242 67.1366 19.1592 67.6674 18.8291C68.2083 18.499 68.4787 18.0489 68.4787 17.4788C68.4787 17.2988 68.4436 17.1137 68.3735 16.9237C68.3134 16.7336 68.1882 16.5486 67.9979 16.3686C67.8176 16.1785 67.5622 15.9935 67.2317 15.8134C66.9112 15.6234 66.4905 15.4384 65.9697 15.2583L63.2804 14.3431C61.3574 13.683 59.9101 12.7928 58.9386 11.6725C57.967 10.5423 57.4812 9.202 57.4812 7.65166C57.4812 6.65145 57.6916 5.69124 58.1122 4.77104C58.5329 3.84083 59.1689 3.02566 60.0203 2.32551C60.8716 1.61535 61.9433 1.05023 63.2354 0.630137C64.5374 0.210046 66.0599 0 67.8026 0C68.664 0 69.4903 0.0500109 70.2816 0.150033C71.0728 0.250054 71.814 0.380083 72.5051 0.540117C73.2062 0.700152 73.8472 0.885192 74.4281 1.09524C75.0091 1.29528 75.5199 1.49533 75.9606 1.69537L74.338 4.621C74.0175 4.42096 73.6769 4.24592 73.3164 4.09589C72.9658 3.94586 72.6103 3.82083 72.2497 3.72081C71.8991 3.62079 71.5536 3.54577 71.213 3.49576C70.8725 3.44575 70.562 3.42074 70.2816 3.42074C69.8008 3.42074 69.3801 3.48576 69.0196 3.61579C68.659 3.73581 68.3535 3.90085 68.1031 4.11089C67.8627 4.31094 67.6774 4.54099 67.5472 4.80104C67.427 5.0511 67.3669 5.30115 67.3669 5.55121C67.3669 5.77125 67.417 5.9863 67.5172 6.19635C67.6273 6.39639 67.8076 6.59643 68.058 6.79648C68.3184 6.98652 68.654 7.18156 69.0646 7.3816C69.4853 7.57165 70.0061 7.77169 70.6271 7.98173L72.43 8.58187C74.3831 9.23201 75.8754 10.1272 76.9071 11.2674C77.9387 12.4077 78.4545 13.788 78.4545 15.4083C78.4545 16.5086 78.2041 17.5238 77.7033 18.454C77.2126 19.3842 76.4764 20.1894 75.4948 20.8695C74.5133 21.5397 73.2913 22.0648 71.829 22.4449C70.3767 22.815 68.689 23 66.766 23C65.8445 23 64.9531 22.95 64.0917 22.85C63.2404 22.7599 62.4041 22.6199 61.5827 22.4299C60.7715 22.2398 59.9702 21.9998 59.1789 21.7097C58.3877 21.4197 57.5964 21.0796 56.8052 20.6895L58.563 17.7038Z" fill="white"/>
<path d="M82.6312 0.360078H93.3732C95.3564 0.350076 97.0641 0.525114 98.4963 0.885192C99.9386 1.23527 101.126 1.74038 102.057 2.40052C102.988 3.06067 103.675 3.85584 104.115 4.78604C104.566 5.70624 104.791 6.73146 104.791 7.86171C104.791 8.85192 104.581 9.80213 104.16 10.7123C103.75 11.6125 103.109 12.4077 102.237 13.0978C101.376 13.788 100.274 14.3381 98.932 14.7482C97.5999 15.1583 96.0124 15.3633 94.1695 15.3633H91.3149V22.6549H82.6312V0.360078ZM91.3149 12.0926C92.006 12.0826 92.622 11.9776 93.1629 11.7776C93.7037 11.5675 94.1595 11.2825 94.53 10.9224C94.9006 10.5523 95.1811 10.1122 95.3714 9.60209C95.5717 9.08197 95.6719 8.50185 95.6719 7.86171C95.6719 7.23157 95.5717 6.66145 95.3714 6.15134C95.1711 5.64123 94.8806 5.20613 94.5 4.84605C94.1294 4.47597 93.6737 4.18591 93.1328 3.97586C92.602 3.76582 91.996 3.65079 91.3149 3.63079V12.0926Z" fill="white"/>
<path d="M108.382 0.360078H117.081L117.066 22.6549H108.382V0.360078Z" fill="white"/>
<path d="M126.726 3.78082H120.356V0.345075H141.78V3.78082H135.41V22.6549H126.726V3.78082Z" fill="white"/>
<path d="M151.215 5.9863L148.631 0.360078H157.78L168.718 22.6699H158.907L157.255 19.0992H148.451L146.813 22.6699H143.012L151.215 5.9863ZM155.677 15.6634L152.853 9.54207L150.043 15.6634H155.677Z" fill="white"/>
<path d="M171.783 0.360078H180.481L180.466 19.2192H189V22.6549H171.783V0.360078Z" fill="white"/>
</svg>
